<?xml version="1.0" encoding="UTF-8"?>
<!DOCTYPE svg PUBLIC "-//W3C//DTD SVG 1.1//EN" "http://www.w3.org/Graphics/SVG/1.1/DTD/svg11.dtd">
<svg xmlns="http://www.w3.org/2000/svg" version="1.1" width="500px" height="500px" style="shape-rendering:geometricPrecision; text-rendering:geometricPrecision; image-rendering:optimizeQuality; fill-rule:evenodd; clip-rule:evenodd" xmlns:xlink="http://www.w3.org/1999/xlink">
<g><path style="opacity:0.965" fill="#ea7120" d="M 203.5,157.5 C 226.167,157.5 248.833,157.5 271.5,157.5C 271.5,162.833 271.5,168.167 271.5,173.5C 284.189,172.453 292.689,178.119 297,190.5C 297.5,200.828 297.666,211.161 297.5,221.5C 295.393,222.468 293.059,222.802 290.5,222.5C 289.263,230.053 284.763,234.053 277,234.5C 270.824,232.825 267.324,228.825 266.5,222.5C 254.833,222.5 243.167,222.5 231.5,222.5C 230.835,229.33 227.002,232.996 220,233.5C 213.128,233.156 208.962,229.656 207.5,223C 205.527,222.505 203.527,222.338 201.5,222.5C 200.844,200.474 201.511,178.808 203.5,157.5 Z M 204.5,161.5 C 225.5,161.5 246.5,161.5 267.5,161.5C 267.334,166.179 267.501,170.845 268,175.5C 268.5,176 269,176.5 269.5,177C 279.166,176.1 286.666,179.6 292,187.5C 292.822,189.788 293.489,192.122 294,194.5C 294.5,202.827 294.666,211.16 294.5,219.5C 293.5,219.5 292.5,219.5 291.5,219.5C 288.401,209.119 281.734,205.952 271.5,210C 267.971,212.331 265.971,215.497 265.5,219.5C 254.813,219.832 244.146,219.499 233.5,218.5C 229.446,208.615 222.446,205.782 212.5,210C 209.172,212.486 206.839,215.652 205.5,219.5C 204.5,200.178 204.167,180.845 204.5,161.5 Z M 273.5,184.5 C 282.373,185.382 286.706,190.382 286.5,199.5C 282.167,199.5 277.833,199.5 273.5,199.5C 273.5,194.5 273.5,189.5 273.5,184.5 Z M 241.5,182.5 C 248.178,187.015 250.845,193.182 249.5,201C 248.5,201.667 247.5,201.667 246.5,201C 242.02,195.657 240.353,189.49 241.5,182.5 Z M 225.5,175.5 C 229.756,176.974 233.422,179.474 236.5,183C 235.62,184.356 235.286,185.856 235.5,187.5C 229.487,187.672 225.487,184.839 223.5,179C 223.978,177.697 224.645,176.531 225.5,175.5 Z M 216.5,213.5 C 227.313,213.777 230.313,218.61 225.5,228C 215.972,231.794 211.472,228.627 212,218.5C 213.366,216.638 214.866,214.972 216.5,213.5 Z M 236.5,192.5 C 236.5,192.833 236.5,193.167 236.5,193.5C 236.869,195.441 237.536,197.275 238.5,199C 235.351,198.41 232.685,196.744 230.5,194C 232.25,192.681 234.25,192.181 236.5,192.5 Z M 275.5,213.5 C 284.153,212.987 287.653,216.987 286,225.5C 280.828,231.768 275.828,231.768 271,225.5C 269.474,220.239 270.974,216.239 275.5,213.5 Z"/></g>
<g><path style="opacity:0.252" fill="#de6b1f" d="M 203.5,159.5 C 225.5,159.5 247.5,159.5 269.5,159.5C 269.5,164.833 269.5,170.167 269.5,175.5C 283.446,174.058 291.946,180.058 295,193.5C 295.5,202.494 295.666,211.494 295.5,220.5C 291.579,221.07 289.412,219.403 289,215.5C 282,207.5 275,207.5 268,215.5C 266.991,217.025 266.491,218.692 266.5,220.5C 254.833,220.5 243.167,220.5 231.5,220.5C 230.573,213.673 226.573,210.006 219.5,209.5C 212.735,210.265 209.068,213.931 208.5,220.5C 206.833,220.5 205.167,220.5 203.5,220.5C 203.5,200.167 203.5,179.833 203.5,159.5 Z M 204.5,161.5 C 204.167,180.845 204.5,200.178 205.5,219.5C 206.839,215.652 209.172,212.486 212.5,210C 222.446,205.782 229.446,208.615 233.5,218.5C 244.146,219.499 254.813,219.832 265.5,219.5C 265.971,215.497 267.971,212.331 271.5,210C 281.734,205.952 288.401,209.119 291.5,219.5C 292.5,219.5 293.5,219.5 294.5,219.5C 294.666,211.16 294.5,202.827 294,194.5C 293.489,192.122 292.822,189.788 292,187.5C 286.666,179.6 279.166,176.1 269.5,177C 269,176.5 268.5,176 268,175.5C 267.501,170.845 267.334,166.179 267.5,161.5C 246.5,161.5 225.5,161.5 204.5,161.5 Z M 273.5,184.5 C 273.5,189.5 273.5,194.5 273.5,199.5C 277.833,199.5 282.167,199.5 286.5,199.5C 286.706,190.382 282.373,185.382 273.5,184.5 Z M 241.5,182.5 C 240.353,189.49 242.02,195.657 246.5,201C 247.5,201.667 248.5,201.667 249.5,201C 250.845,193.182 248.178,187.015 241.5,182.5 Z M 225.5,175.5 C 224.645,176.531 223.978,177.697 223.5,179C 225.487,184.839 229.487,187.672 235.5,187.5C 235.286,185.856 235.62,184.356 236.5,183C 233.422,179.474 229.756,176.974 225.5,175.5 Z M 236.5,192.5 C 236.5,192.833 236.5,193.167 236.5,193.5C 236.869,195.441 237.536,197.275 238.5,199C 235.351,198.41 232.685,196.744 230.5,194C 232.25,192.681 234.25,192.181 236.5,192.5 Z"/></g>
<g><path style="opacity:0.232" fill="#de6b1f" d="M 268.5,179.5 C 284.939,178.36 292.439,186.027 291,202.5C 290.5,203 290,203.5 289.5,204C 282.833,204.667 276.167,204.667 269.5,204C 269,203.5 268.5,203 268,202.5C 267.202,194.754 267.369,187.087 268.5,179.5 Z M 273.5,184.5 C 273.5,189.5 273.5,194.5 273.5,199.5C 277.833,199.5 282.167,199.5 286.5,199.5C 286.706,190.382 282.373,185.382 273.5,184.5 Z"/></g>
<g><path style="opacity:0.961" fill="#ea7120" d="M 269.5,180.5 C 284.172,180.507 290.838,187.84 289.5,202.5C 282.833,202.5 276.167,202.5 269.5,202.5C 269.5,195.167 269.5,187.833 269.5,180.5 Z M 273.5,184.5 C 273.5,189.5 273.5,194.5 273.5,199.5C 277.833,199.5 282.167,199.5 286.5,199.5C 286.706,190.382 282.373,185.382 273.5,184.5 Z"/></g>
<g><path style="opacity:0.188" fill="#de6b1e" d="M 201.5,156.5 C 224.663,155.337 247.996,155.17 271.5,156C 272,156.5 272.5,157 273,157.5C 273.499,162.489 273.666,167.489 273.5,172.5C 286.754,172.427 295.087,178.76 298.5,191.5C 298.827,201.681 298.494,211.681 297.5,221.5C 297.666,211.161 297.5,200.828 297,190.5C 292.689,178.119 284.189,172.453 271.5,173.5C 271.5,168.167 271.5,162.833 271.5,157.5C 248.833,157.5 226.167,157.5 203.5,157.5C 203.158,156.662 202.492,156.328 201.5,156.5 Z"/></g>
<g><path style="opacity:0.205" fill="#de6c1f" d="M 271.5,182.5 C 282.774,183.112 288.108,189.112 287.5,200.5C 282.167,200.5 276.833,200.5 271.5,200.5C 271.5,194.5 271.5,188.5 271.5,182.5 Z M 273.5,184.5 C 273.5,189.5 273.5,194.5 273.5,199.5C 277.833,199.5 282.167,199.5 286.5,199.5C 286.706,190.382 282.373,185.382 273.5,184.5 Z"/></g>
<g><path style="opacity:0.192" fill="#dd6b1f" d="M 219.5,175.5 C 220.649,171.997 223.149,170.331 227,170.5C 231.047,171.195 234.381,173.195 237,176.5C 237.519,175.484 238.353,174.818 239.5,174.5C 252.144,180.786 256.977,190.786 254,204.5C 246.665,208.247 239.498,207.747 232.5,203C 229.333,199.833 226.167,196.667 223,193.5C 222.289,191.633 222.789,190.133 224.5,189C 219.198,185.607 217.532,181.107 219.5,175.5 Z M 241.5,182.5 C 240.353,189.49 242.02,195.657 246.5,201C 247.5,201.667 248.5,201.667 249.5,201C 250.845,193.182 248.178,187.015 241.5,182.5 Z M 225.5,175.5 C 224.645,176.531 223.978,177.697 223.5,179C 225.487,184.839 229.487,187.672 235.5,187.5C 235.286,185.856 235.62,184.356 236.5,183C 233.422,179.474 229.756,176.974 225.5,175.5 Z M 236.5,192.5 C 236.5,192.833 236.5,193.167 236.5,193.5C 236.869,195.441 237.536,197.275 238.5,199C 235.351,198.41 232.685,196.744 230.5,194C 232.25,192.681 234.25,192.181 236.5,192.5 Z"/></g>
<g><path style="opacity:0.95" fill="#e87120" d="M 219.5,175.5 C 221.633,173.226 224.299,171.892 227.5,171.5C 231.384,173.21 234.884,175.543 238,178.5C 238.249,177.376 238.749,176.376 239.5,175.5C 247.663,180.665 252.663,187.999 254.5,197.5C 253.963,203.041 250.963,205.708 245.5,205.5C 235.447,204.651 228.447,199.651 224.5,190.5C 225.552,190.649 226.552,190.483 227.5,190C 225.333,187.833 223.167,185.667 221,183.5C 219.921,180.937 219.421,178.271 219.5,175.5 Z M 241.5,182.5 C 240.353,189.49 242.02,195.657 246.5,201C 247.5,201.667 248.5,201.667 249.5,201C 250.845,193.182 248.178,187.015 241.5,182.5 Z M 225.5,175.5 C 224.645,176.531 223.978,177.697 223.5,179C 225.487,184.839 229.487,187.672 235.5,187.5C 235.286,185.856 235.62,184.356 236.5,183C 233.422,179.474 229.756,176.974 225.5,175.5 Z M 236.5,192.5 C 236.5,192.833 236.5,193.167 236.5,193.5C 236.869,195.441 237.536,197.275 238.5,199C 235.351,198.41 232.685,196.744 230.5,194C 232.25,192.681 234.25,192.181 236.5,192.5 Z"/></g>
<g><path style="opacity:0.181" fill="#dd6b1f" d="M 240.5,179.5 C 249.658,185.267 252.658,193.1 249.5,203C 245.248,202.432 242.414,199.932 241,195.5C 239.244,190.203 239.077,184.87 240.5,179.5 Z M 241.5,182.5 C 240.353,189.49 242.02,195.657 246.5,201C 247.5,201.667 248.5,201.667 249.5,201C 250.845,193.182 248.178,187.015 241.5,182.5 Z"/></g>
<g><path style="opacity:0.221" fill="#dd6b1f" d="M 224.5,174.5 C 233.502,175.5 237.836,180.5 237.5,189.5C 229.658,190.17 224.658,186.67 222.5,179C 222.519,177.167 223.185,175.667 224.5,174.5 Z M 225.5,175.5 C 224.645,176.531 223.978,177.697 223.5,179C 225.487,184.839 229.487,187.672 235.5,187.5C 235.286,185.856 235.62,184.356 236.5,183C 233.422,179.474 229.756,176.974 225.5,175.5 Z"/></g>
<g><path style="opacity:0.188" fill="#df6c1f" d="M 201.5,156.5 C 202.492,156.328 203.158,156.662 203.5,157.5C 201.511,178.808 200.844,200.474 201.5,222.5C 203.527,222.338 205.527,222.505 207.5,223C 208.962,229.656 213.128,233.156 220,233.5C 227.002,232.996 230.835,229.33 231.5,222.5C 243.167,222.5 254.833,222.5 266.5,222.5C 267.324,228.825 270.824,232.825 277,234.5C 284.763,234.053 289.263,230.053 290.5,222.5C 293.059,222.802 295.393,222.468 297.5,221.5C 298.494,211.681 298.827,201.681 298.5,191.5C 299.659,201.658 299.825,211.992 299,222.5C 296.865,224.278 294.365,224.945 291.5,224.5C 287.714,234.825 280.714,237.658 270.5,233C 267.909,230.643 266.242,227.809 265.5,224.5C 254.828,224.333 244.161,224.5 233.5,225C 227.419,236.364 219.253,238.197 209,230.5C 208.167,228.833 207.333,227.167 206.5,225.5C 204.083,224.928 201.916,223.928 200,222.5C 199.333,200.833 199.333,179.167 200,157.5C 200.383,156.944 200.883,156.611 201.5,156.5 Z M 216.5,213.5 C 214.866,214.972 213.366,216.638 212,218.5C 211.472,228.627 215.972,231.794 225.5,228C 230.313,218.61 227.313,213.777 216.5,213.5 Z M 236.5,192.5 C 236.5,192.833 236.5,193.167 236.5,193.5C 236.869,195.441 237.536,197.275 238.5,199C 235.351,198.41 232.685,196.744 230.5,194C 232.25,192.681 234.25,192.181 236.5,192.5 Z M 275.5,213.5 C 270.974,216.239 269.474,220.239 271,225.5C 275.828,231.768 280.828,231.768 286,225.5C 287.653,216.987 284.153,212.987 275.5,213.5 Z"/></g>
<g><path style="opacity:0.178" fill="#de6b1f" d="M 219.5,211.5 C 230.191,214.791 232.191,220.958 225.5,230C 216.924,233.212 211.924,230.379 210.5,221.5C 210.764,215.608 213.764,212.275 219.5,211.5 Z M 216.5,213.5 C 214.866,214.972 213.366,216.638 212,218.5C 211.472,228.627 215.972,231.794 225.5,228C 230.313,218.61 227.313,213.777 216.5,213.5 Z"/></g>
<g><path style="opacity:0.15" fill="#dc6b1e" d="M 236.5,192.5 C 234.25,192.181 232.25,192.681 230.5,194C 232.685,196.744 235.351,198.41 238.5,199C 237.536,197.275 236.869,195.441 236.5,193.5C 239.026,196.507 240.859,199.841 242,203.5C 235.997,201.411 231.163,197.744 227.5,192.5C 231.241,191.225 234.241,191.225 236.5,192.5 Z"/></g>
<g><path style="opacity:0.176" fill="#de6c1f" d="M 277.5,211.5 C 287.199,213.564 290.032,219.23 286,228.5C 281.856,231.772 277.356,232.272 272.5,230C 266.043,221.542 267.71,215.376 277.5,211.5 Z M 275.5,213.5 C 270.974,216.239 269.474,220.239 271,225.5C 275.828,231.768 280.828,231.768 286,225.5C 287.653,216.987 284.153,212.987 275.5,213.5 Z"/></g>
<g><path style="opacity:0.352" fill="#e36e1f" d="M 132.5,254.5 C 139.833,254.5 147.167,254.5 154.5,254.5C 154.5,256.167 154.5,257.833 154.5,259.5C 149.5,259.5 144.5,259.5 139.5,259.5C 139.5,262.5 139.5,265.5 139.5,268.5C 143.5,268.5 147.5,268.5 151.5,268.5C 151.5,270.5 151.5,272.5 151.5,274.5C 147.5,274.5 143.5,274.5 139.5,274.5C 139.5,278.833 139.5,283.167 139.5,287.5C 137.167,287.5 134.833,287.5 132.5,287.5C 132.5,276.5 132.5,265.5 132.5,254.5 Z"/></g>
<g><path style="opacity:0.979" fill="#e97121" d="M 133.5,255.5 C 140.167,255.5 146.833,255.5 153.5,255.5C 153.5,256.5 153.5,257.5 153.5,258.5C 148.167,258.5 142.833,258.5 137.5,258.5C 137.5,262.5 137.5,266.5 137.5,270.5C 141.833,270.5 146.167,270.5 150.5,270.5C 150.649,271.552 150.483,272.552 150,273.5C 145.724,272.374 141.724,272.374 138,273.5C 137.501,277.821 137.334,282.154 137.5,286.5C 136.167,286.5 134.833,286.5 133.5,286.5C 133.5,276.167 133.5,265.833 133.5,255.5 Z"/></g>
<g><path style="opacity:0.007" fill="#e16c1f" d="M 340.5,262.5 C 344.831,261.451 346.997,263.118 347,267.5C 353.667,260.833 360.333,260.833 367,267.5C 370.687,274.912 369.52,281.412 363.5,287C 348.899,290.234 342.899,284.401 345.5,269.5C 342.956,269.104 340.789,269.771 339,271.5C 338.667,276.5 338.333,281.5 338,286.5C 335.959,287.423 333.792,287.756 331.5,287.5C 331.5,279.5 331.5,271.5 331.5,263.5C 333.792,263.244 335.959,263.577 338,264.5C 338.995,263.934 339.828,263.267 340.5,262.5 Z M 359.5,268.5 C 363.392,273.068 363.392,277.568 359.5,282C 353.255,282.72 350.755,279.887 352,273.5C 352.77,269.229 355.27,267.563 359.5,268.5 Z"/></g>
<g><path style="opacity:0.971" fill="#e87020" d="M 333.5,264.5 C 335.143,264.48 336.476,265.147 337.5,266.5C 339.851,264.771 342.518,264.104 345.5,264.5C 345.895,267.523 344.895,268.523 342.5,267.5C 340.205,268.136 338.539,269.469 337.5,271.5C 336.606,276.456 336.273,281.456 336.5,286.5C 335.5,286.5 334.5,286.5 333.5,286.5C 333.5,279.167 333.5,271.833 333.5,264.5 Z"/></g>
<g><path style="opacity:0.969" fill="#e97120" d="M 352.5,264.5 C 365.845,263.692 370.345,269.692 366,282.5C 361.909,286.305 357.076,287.472 351.5,286C 346.398,281.083 345.232,275.249 348,268.5C 349.397,266.93 350.897,265.596 352.5,264.5 Z M 359.5,268.5 C 355.27,267.563 352.77,269.229 352,273.5C 350.755,279.887 353.255,282.72 359.5,282C 363.392,277.568 363.392,273.068 359.5,268.5 Z"/></g>
<g><path style="opacity:0.096" fill="#e06c1f" d="M 188.5,268.5 C 192.163,263.346 197.163,261.513 203.5,263C 208.596,266.023 210.929,270.523 210.5,276.5C 205.125,276.172 199.792,276.505 194.5,277.5C 195.128,279.258 196.128,280.758 197.5,282C 200.662,282.602 203.662,282.102 206.5,280.5C 209.517,281.38 210.184,283.214 208.5,286C 198.765,290.981 191.932,288.481 188,278.5C 187.612,275.151 187.779,271.817 188.5,268.5 Z M 197.5,268.5 C 200.278,268.022 202.278,269.022 203.5,271.5C 200.833,272.833 198.167,272.833 195.5,271.5C 196.193,270.482 196.859,269.482 197.5,268.5 Z"/></g>
<g><path style="opacity:0.957" fill="#e97120" d="M 194.5,264.5 C 203.89,262.5 208.557,266.167 208.5,275.5C 203.5,275.5 198.5,275.5 193.5,275.5C 193.228,280.299 195.395,283.299 200,284.5C 202.333,283.5 204.667,282.5 207,281.5C 209.149,283.724 208.649,285.224 205.5,286C 192.648,287.811 187.482,282.311 190,269.5C 191.366,267.638 192.866,265.972 194.5,264.5 Z M 197.5,268.5 C 196.859,269.482 196.193,270.482 195.5,271.5C 198.167,272.833 200.833,272.833 203.5,271.5C 202.278,269.022 200.278,268.022 197.5,268.5 Z"/></g>
<g><path style="opacity:0.222" fill="#e16d1f" d="M 252.5,262.5 C 257.447,261.628 261.613,262.961 265,266.5C 266.544,273.084 266.877,279.751 266,286.5C 261.821,286.046 257.655,286.712 253.5,288.5C 247.369,287.871 244.869,284.538 246,278.5C 249.66,274.619 254.16,272.286 259.5,271.5C 259.167,269.833 258.167,268.833 256.5,268.5C 253.673,269.932 250.673,270.599 247.5,270.5C 247.34,268.801 247.506,267.134 248,265.5C 249.652,264.601 251.152,263.601 252.5,262.5 Z M 252.5,279.5 C 254.856,278.425 257.189,278.425 259.5,279.5C 256.884,283.435 254.551,283.435 252.5,279.5 Z"/></g>
<g><path style="opacity:0.969" fill="#e97120" d="M 251.5,264.5 C 256.535,263.502 260.702,264.835 264,268.5C 264.499,274.491 264.666,280.491 264.5,286.5C 263.5,286.5 262.5,286.5 261.5,286.5C 261.557,282.867 260.557,282.7 258.5,286C 255.5,286.667 252.5,286.667 249.5,286C 246.657,282.381 246.99,279.048 250.5,276C 253.726,274.801 257.059,274.301 260.5,274.5C 260.311,266.406 256.978,264.739 250.5,269.5C 249.914,269.291 249.414,268.957 249,268.5C 249.193,266.918 250.026,265.584 251.5,264.5 Z M 252.5,279.5 C 254.551,283.435 256.884,283.435 259.5,279.5C 257.189,278.425 254.856,278.425 252.5,279.5 Z"/></g>
<g><path style="opacity:0.188" fill="#e06d1f" d="M 188.5,268.5 C 186.236,269.219 183.903,269.552 181.5,269.5C 181.334,273.514 181.501,277.514 182,281.5C 183.425,282.212 184.925,282.379 186.5,282C 189.427,286.296 188.093,288.462 182.5,288.5C 179.889,288.444 177.722,287.444 176,285.5C 174.826,280.25 174.159,274.916 174,269.5C 173.329,268.748 172.496,268.414 171.5,268.5C 170.756,265.05 172.09,263.384 175.5,263.5C 174.505,258.458 176.505,256.125 181.5,256.5C 181.5,258.833 181.5,261.167 181.5,263.5C 183.527,263.338 185.527,263.505 187.5,264C 188.38,265.356 188.714,266.856 188.5,268.5 Z"/></g>
<g><path style="opacity:0.979" fill="#e97120" d="M 177.5,257.5 C 178.5,257.5 179.5,257.5 180.5,257.5C 180.5,260.167 180.5,262.833 180.5,265.5C 188.5,266.167 188.5,266.833 180.5,267.5C 180.334,272.511 180.501,277.511 181,282.5C 183.28,283.086 185.447,283.92 187.5,285C 183.877,287.109 180.377,286.942 177,284.5C 176.501,278.843 176.334,273.176 176.5,267.5C 175.022,267.762 173.689,267.429 172.5,266.5C 173.32,264.889 174.654,264.222 176.5,264.5C 176.993,262.194 177.326,259.861 177.5,257.5 Z"/></g>
<g><path style="opacity:0.056" fill="#e16c1f" d="M 315.5,279.5 C 310.915,277.921 309.582,279.421 311.5,284C 308.226,286.604 307.893,289.437 310.5,292.5C 315.945,295.318 321.278,295.151 326.5,292C 330.327,288.905 330.327,285.905 326.5,283C 323.5,282.667 320.5,282.333 317.5,282C 316.584,281.722 315.918,281.222 315.5,280.5C 318.85,280.335 322.183,280.502 325.5,281C 331.826,284.686 332.16,289.019 326.5,294C 321.953,295.545 317.287,295.879 312.5,295C 308.709,293.92 307.043,291.42 307.5,287.5C 305.5,287.5 303.5,287.5 301.5,287.5C 300.833,284.833 300.167,282.167 299.5,279.5C 295.167,279.5 290.833,279.5 286.5,279.5C 286.907,286.028 283.907,288.694 277.5,287.5C 280.604,276.356 284.604,265.523 289.5,255C 292.099,254.231 294.599,254.398 297,255.5C 300.742,265.311 304.742,274.978 309,284.5C 309.226,281.905 309.726,279.405 310.5,277C 306.349,268.802 308.849,263.969 318,262.5C 322.02,263.956 326.187,264.622 330.5,264.5C 328.884,267.854 327.718,271.52 327,275.5C 323.96,278.966 320.126,280.3 315.5,279.5 Z M 316.5,268.5 C 321.158,268.653 322.158,270.486 319.5,274C 316.888,274.741 315.222,273.741 314.5,271C 315.381,270.292 316.047,269.458 316.5,268.5 Z M 292.5,264.5 C 294.105,267.12 295.438,269.953 296.5,273C 294.167,273.667 291.833,273.667 289.5,273C 290.798,270.273 291.798,267.44 292.5,264.5 Z M 314.5,286.5 C 317.572,286.183 320.572,286.516 323.5,287.5C 320.968,290.265 317.968,290.932 314.5,289.5C 314.5,288.5 314.5,287.5 314.5,286.5 Z"/></g>
<g><path style="opacity:0.962" fill="#e87020" d="M 314.5,264.5 C 319.6,264.429 324.6,265.096 329.5,266.5C 327.185,269.025 325.685,272.025 325,275.5C 323.488,276.257 322.154,277.257 321,278.5C 316.761,279.14 313.261,277.64 310.5,274C 308.771,269.558 310.104,266.391 314.5,264.5 Z M 316.5,268.5 C 316.047,269.458 315.381,270.292 314.5,271C 315.222,273.741 316.888,274.741 319.5,274C 322.158,270.486 321.158,268.653 316.5,268.5 Z"/></g>
<g><path style="opacity:0.163" fill="#e26c1f" d="M 317.5,266.5 C 324.004,269.252 324.171,272.586 318,276.5C 312.212,273.341 312.046,270.008 317.5,266.5 Z M 316.5,268.5 C 316.047,269.458 315.381,270.292 314.5,271C 315.222,273.741 316.888,274.741 319.5,274C 322.158,270.486 321.158,268.653 316.5,268.5 Z"/></g>
<g><path style="opacity:0.974" fill="#e97120" d="M 290.5,255.5 C 292.467,255.261 294.301,255.594 296,256.5C 299.537,266.275 303.37,275.941 307.5,285.5C 305.955,286.452 304.288,286.785 302.5,286.5C 301.539,283.574 300.873,280.574 300.5,277.5C 295.5,277.5 290.5,277.5 285.5,277.5C 284.833,280.5 284.167,283.5 283.5,286.5C 281.801,286.66 280.134,286.494 278.5,286C 282.353,275.791 286.353,265.624 290.5,255.5 Z M 292.5,264.5 C 291.798,267.44 290.798,270.273 289.5,273C 291.833,273.667 294.167,273.667 296.5,273C 295.438,269.953 294.105,267.12 292.5,264.5 Z"/></g>
<g><path style="opacity:0.401" fill="#e26d1f" d="M 292.5,260.5 C 295.005,264.855 297.005,269.521 298.5,274.5C 294.833,275.833 291.167,275.833 287.5,274.5C 289.18,269.812 290.847,265.146 292.5,260.5 Z M 292.5,264.5 C 291.798,267.44 290.798,270.273 289.5,273C 291.833,273.667 294.167,273.667 296.5,273C 295.438,269.953 294.105,267.12 292.5,264.5 Z"/></g>
<g><path style="opacity:0.453" fill="#e16d1f" d="M 171.5,268.5 C 171.5,274.833 171.5,281.167 171.5,287.5C 169.208,287.756 167.041,287.423 165,286.5C 157.838,290.446 153.005,288.613 150.5,281C 151.083,278.501 152.416,276.501 154.5,275C 157.833,273.833 161.167,272.667 164.5,271.5C 164.167,269.833 163.167,268.833 161.5,268.5C 158.972,269.942 156.305,270.442 153.5,270C 152.115,267.415 152.782,265.415 155.5,264C 162.258,260.975 167.591,262.475 171.5,268.5 Z M 159.5,278.5 C 165.797,278.547 166.13,279.88 160.5,282.5C 156.906,281.918 156.573,280.585 159.5,278.5 Z"/></g>
<g><path style="opacity:0.967" fill="#e97120" d="M 156.5,264.5 C 159.85,264.335 163.183,264.502 166.5,265C 167.333,265.833 168.167,266.667 169,267.5C 169.5,273.825 169.666,280.158 169.5,286.5C 168.5,286.5 167.5,286.5 166.5,286.5C 166.557,282.867 165.557,282.7 163.5,286C 157.987,287.573 153.987,285.907 151.5,281C 154.593,275.681 159.259,273.515 165.5,274.5C 165.311,266.406 161.978,264.739 155.5,269.5C 154.914,269.291 154.414,268.957 154,268.5C 154.193,266.918 155.026,265.584 156.5,264.5 Z M 159.5,278.5 C 156.573,280.585 156.906,281.918 160.5,282.5C 166.13,279.88 165.797,278.547 159.5,278.5 Z"/></g>
<g><path style="opacity:0.31" fill="#e16c1f" d="M 197.5,266.5 C 202.212,266.545 204.545,268.878 204.5,273.5C 200.774,273.823 197.107,273.489 193.5,272.5C 193.937,269.775 195.27,267.775 197.5,266.5 Z M 197.5,268.5 C 196.859,269.482 196.193,270.482 195.5,271.5C 198.167,272.833 200.833,272.833 203.5,271.5C 202.278,269.022 200.278,268.022 197.5,268.5 Z"/></g>
<g><path style="opacity:0.252" fill="#e16d1f" d="M 159.5,276.5 C 161.5,276.5 163.5,276.5 165.5,276.5C 166.227,280.938 164.393,283.605 160,284.5C 155.571,282.114 155.405,279.447 159.5,276.5 Z M 159.5,278.5 C 156.573,280.585 156.906,281.918 160.5,282.5C 166.13,279.88 165.797,278.547 159.5,278.5 Z"/></g>
<g><path style="opacity:0.962" fill="#e97020" d="M 315.5,279.5 C 315.5,279.833 315.5,280.167 315.5,280.5C 315.918,281.222 316.584,281.722 317.5,282C 320.5,282.333 323.5,282.667 326.5,283C 330.327,285.905 330.327,288.905 326.5,292C 321.278,295.151 315.945,295.318 310.5,292.5C 307.893,289.437 308.226,286.604 311.5,284C 309.582,279.421 310.915,277.921 315.5,279.5 Z M 314.5,286.5 C 314.5,287.5 314.5,288.5 314.5,289.5C 317.968,290.932 320.968,290.265 323.5,287.5C 320.572,286.516 317.572,286.183 314.5,286.5 Z"/></g>
<g><path style="opacity:0.28" fill="#e16c1f" d="M 252.5,279.5 C 254.391,276.828 257.058,275.828 260.5,276.5C 260.561,282.908 257.561,285.242 251.5,283.5C 251.232,281.901 251.566,280.568 252.5,279.5 Z M 252.5,279.5 C 254.551,283.435 256.884,283.435 259.5,279.5C 257.189,278.425 254.856,278.425 252.5,279.5 Z"/></g>
<g><path style="opacity:0.057" fill="#e16c1f" d="M 359.5,268.5 C 361.411,268.574 362.578,269.574 363,271.5C 364.994,277.839 362.994,282.172 357,284.5C 351.006,282.172 349.006,277.839 351,271.5C 353.018,266.096 355.851,265.096 359.5,268.5 Z M 359.5,268.5 C 355.27,267.563 352.77,269.229 352,273.5C 350.755,279.887 353.255,282.72 359.5,282C 363.392,277.568 363.392,273.068 359.5,268.5 Z"/></g>
<g><path style="opacity:0.177" fill="#e16d1f" d="M 220.5,262.5 C 223.97,261.875 226.804,262.875 229,265.5C 233.634,261.601 238.3,261.601 243,265.5C 244.429,272.719 244.929,280.053 244.5,287.5C 242.208,287.756 240.041,287.423 238,286.5C 237.667,280.833 237.333,275.167 237,269.5C 235.062,268.14 233.396,268.473 232,270.5C 231.501,276.157 231.334,281.824 231.5,287.5C 229.208,287.756 227.041,287.423 225,286.5C 224.667,280.833 224.333,275.167 224,269.5C 222.062,268.14 220.396,268.473 219,270.5C 218.501,276.157 218.334,281.824 218.5,287.5C 216.5,287.5 214.5,287.5 212.5,287.5C 212.5,279.5 212.5,271.5 212.5,263.5C 215.385,263.806 218.052,263.473 220.5,262.5 Z"/></g>
<g><path style="opacity:0.951" fill="#e97120" d="M 213.5,264.5 C 214.5,264.5 215.5,264.5 216.5,264.5C 216.819,268.3 217.819,268.466 219.5,265C 223.781,263.542 226.947,264.708 229,268.5C 229.465,267.069 230.299,265.903 231.5,265C 236.731,263.276 240.565,264.776 243,269.5C 243.499,275.157 243.666,280.824 243.5,286.5C 242.167,286.5 240.833,286.5 239.5,286.5C 239.861,280.407 239.361,274.407 238,268.5C 235.524,266.185 233.191,266.518 231,269.5C 230.501,275.157 230.334,280.824 230.5,286.5C 229.167,286.5 227.833,286.5 226.5,286.5C 226.666,281.489 226.499,276.489 226,271.5C 224.564,265.779 221.897,265.112 218,269.5C 217.501,275.157 217.334,280.824 217.5,286.5C 216.167,286.5 214.833,286.5 213.5,286.5C 213.5,279.167 213.5,271.833 213.5,264.5 Z"/></g>
<g><path style="opacity:0.268" fill="#e16c1f" d="M 314.5,284.5 C 317.187,284.336 319.854,284.503 322.5,285C 326.325,286.768 326.325,288.768 322.5,291C 319.022,292.86 315.855,292.36 313,289.5C 312.387,287.505 312.887,285.838 314.5,284.5 Z M 314.5,286.5 C 314.5,287.5 314.5,288.5 314.5,289.5C 317.968,290.932 320.968,290.265 323.5,287.5C 320.572,286.516 317.572,286.183 314.5,286.5 Z"/></g>
</svg>
